<svg xmlns="http://www.w3.org/2000/svg" viewBox="0 0 64 80" x="0px" y="0px"><title>1</title><path d="M59.83746,48.79849a3.604,3.604,0,0,0-1.5407-2.79432,8.25153,8.25153,0,0,0-2.42758-6.41861c-1.51179-1.47353-3.522-1.5819-5.43748-1.25917a14.95285,14.95285,0,0,1-7.66459-1.14162,4.6069,4.6069,0,0,0,.838-1.95553,1.00037,1.00037,0,0,0-1.98365-.2518,2.70208,2.70208,0,0,1-.66943,1.26938c-5.30762-3.34322-2.2703-1.66382-1.57769-5.24847a1.00042,1.00042,0,0,0-1.98375-.25178,2.9336,2.9336,0,0,1-1.1795,1.73569C32.17979,28.09468,34.228,30.5397,35.14353,26.767a.99364.99364,0,0,0-.86019-1.10119c-1.4772.05127-.72371.94485-1.8017,2.1278-.78628-1.19119-1.50641-2.42548-2.165-3.67667a4.81844,4.81844,0,0,0,1.36468-2.57218.99307.99307,0,0,0-.86-1.10116c-1.223-.0166-.90559.76775-1.48471,1.712-.62212-1.3155-1.17984-2.63112-1.6774-3.91525a5.00947,5.00947,0,0,0,2.42751-3.40989.99305.99305,0,0,0-.86-1.10116,1.00433,1.00433,0,0,0-1.12361.8493,2.92324,2.92324,0,0,1-1.16041,1.72172c-.55576-1.578-1.01861-3.074-1.39994-4.42733,1.20635-1.60755,1.58994-3.02574.22241-3.3664a.99889.99889,0,0,0-.97835.46542,4.15428,4.15428,0,0,0-1.85032-3.01814,2.59909,2.59909,0,0,0-2.12613-.20211L7.22977,10.359c-1.98329.60442-2.85652,3.5713-2.23983,5.63029.51732,1.93334,1.59993,7.52016.4729,17.597L4.47053,41.4916a14.563,14.563,0,0,0,.16436,5.56431c-.93716,1.88644-.55529,5.523-.62465,7.5681.01229,2.356,2.08616,2.633,3.83315,2.865,3.02751.74372,11.1919.63942,13.20508.26411a.99879.99879,0,0,0,.86538-.99029c-.005-.664-.10721-1.97469.78734-1.99784l8.2938,1.109c.36426.02311.73148.67415.675,1.27884a.99986.99986,0,0,0,.91473.9962c1.93387.1645,3.74375.23869,5.44039.23869,15.66419-.00049,21.45211-6.3429,21.71471-6.64161a1.00019,1.00019,0,0,0,.248-.72825Zm-9.20464-8.48273,1.3784-.13911a3.19112,3.19112,0,0,1,2.5108.8864,6.58243,6.58243,0,0,1,1.76983,5.24369c-1.887,1.44331-11.75055,8.40853-22.65671,5.45551-.97711-.27862-5.96009-1.76026-6.87466-1.95644,2.80416-4.2058,6.63637-6.95461,11.20909-5.33132a7.66265,7.66265,0,0,0,8.09656-2.08478l1.98872-1.99378A18.93125,18.93125,0,0,0,50.63282,40.31576ZM6.81537,14.28379c.02574-.872.46421-1.86341,1.05678-2.03194L21.45308,7.64462a.60583.60583,0,0,1,.51055.05564c.99941.72945.87189,2.278,1.32649,3.51582a5.6114,5.6114,0,0,1-2.42423.84587.9996.9996,0,0,0,.26852,1.98071,8.06156,8.06156,0,0,0,2.71458-.83074c.35943,1.22166.781,2.53971,1.27157,3.91732-.75718.14773-1.76009.22722-1.64914,1.27957a.99936.99936,0,0,0,.98886.86534A7.64965,7.64965,0,0,0,25.82,19.0104c.56961,1.46216,1.216,2.96588,1.94509,4.46741a6.22922,6.22922,0,0,1-1.84241.52117,1.001,1.001,0,0,0,.13282,1.99,8.04076,8.04076,0,0,0,2.622-.723c.65314,1.22385,1.36138,2.43459,2.13441,3.60707-.73769.35842-2.4464.15507-2.28422,1.47281.33842,1.61494,2.63869.49666,3.46693.21507a33.11478,33.11478,0,0,0,2.28355,2.77063c-.73828.09414-1.63164.29021-1.51912,1.24571a.99906.99906,0,0,0,.98935.86534,8.19322,8.19322,0,0,0,2.12312-.51275,24.129,24.129,0,0,0,3.17517,2.48657,6.979,6.979,0,0,1-1.20018.267.99925.99925,0,0,0-.85711,1.12459c.37928,1.83762,3.489.2,4.18793-.16827a15.54949,15.54949,0,0,0,4.3366,1.47261c-1.80327,2.11081-4.36827,3.45176-6.87285,2.47882-4.31379-1.53935-8.97468.10507-12.16443,4.28908l-1.85809,2.438a51.42421,51.42421,0,0,0-8.35077-.90043L15.835,46.36384a10.52613,10.52613,0,0,0-8.15766-8.15375l-.76077-.15382L7.448,33.822C8.76514,22.05435,7.24407,18.117,6.81537,14.28379ZM6.61092,46.71655c-.56894-1.45666-.248-4.66579.05614-6.67139l.60664.12271c4.03775.83885,6.43109,4.163,6.922,8.11238C8.564,47.8628,7.24972,47.3927,6.96424,47.23657A.95714.95714,0,0,1,6.61092,46.71655Zm26.97053,9.5055a2.889,2.889,0,0,0-2.319-2.32923l-8.29432-1.109a2.8967,2.8967,0,0,0-3.05354,3.08189c-.6605.06216-1.6749.13684-2.90912.17485V53.93431a.99983.99983,0,0,0-1.99927.00006v2.12312q-.9842-.00632-1.99927-.05668v-2.0665a.99964.99964,0,0,0-1.99927,0v1.9288q-1.02336-.09061-1.99927-.22978v-1.699a.99963.99963,0,1,0-1.99926,0V55.31c-.44621-.16318-.97646.06927-.99963-.68593.02788-.76721-.08935-4.90218.10532-5.57483.58918.3,2.48369,1.0081,12.33445,1.49132a39.61255,39.61255,0,0,1,9.11727,1.54l5.52776,1.60683c9.70492,3.0413,21.12956-2.91816,24.375-5.76024a1.821,1.821,0,0,1,.37275,1.00612l.11909,1.76059C56.53984,51.98776,49.58535,57.38568,33.58145,56.22205Z"/><text x="0" y="79" fill="#000000" font-size="5px" font-weight="bold" font-family="'Helvetica Neue', Helvetica, Arial-Unicode, Arial, Sans-serif">Created by metami septiana</text><text x="0" y="84" fill="#000000" font-size="5px" font-weight="bold" font-family="'Helvetica Neue', Helvetica, Arial-Unicode, Arial, Sans-serif">from the Noun Project</text></svg>